<svg id="Layer_1" data-name="Layer 1" xmlns="http://www.w3.org/2000/svg" viewBox="0 0 250 48.28"><defs><style>.cls-1{fill:#231f20;}</style></defs><path class="cls-1" d="M33.7,25.61c0-1.9-.93-2.59-2.4-2.59a3.3,3.3,0,0,0-1.64.35,3.34,3.34,0,0,0-1.27,1.12l-1.21-1.07a4.9,4.9,0,0,1,4.18-2c2.63,0,4.25,1.39,4.25,4.22v6.31H33.7V30.76a4,4,0,0,1-3.21,1.41c-2.16,0-3.91-1.06-3.91-3.31,0-2.08,1.85-3.16,4-3.16H33.7Zm-3,1.63c-1.25,0-2.25.46-2.25,1.62s.87,1.73,2.31,1.73,2.9-.81,2.9-2.24V27.22Z"/><path class="cls-1" d="M41,30.17v1.74h-1.9V9.75H41V23.38a4,4,0,0,1,3.72-2,5.13,5.13,0,0,1,5.06,5.4,5.1,5.1,0,0,1-5.06,5.38A4,4,0,0,1,41,30.17Zm6.81-3.37a3.43,3.43,0,0,0-3.47-3.72c-2.06,0-3.4,1.53-3.4,3.72a3.38,3.38,0,0,0,3.4,3.68A3.45,3.45,0,0,0,47.79,26.8Z"/><path class="cls-1" d="M52,26.8a5.26,5.26,0,0,1,5.31-5.41,5.16,5.16,0,0,1,4.06,1.66L60,24.21a3.72,3.72,0,0,0-1.27-.88,3.56,3.56,0,0,0-1.51-.28c-2,0-3.31,1.62-3.31,3.75s1.31,3.71,3.31,3.71a3.88,3.88,0,0,0,3-1.28l1.28,1.13a5.32,5.32,0,0,1-4.31,1.81,5.17,5.17,0,0,1-2.06-.39,5.23,5.23,0,0,1-1.74-1.17,5.12,5.12,0,0,1-1.15-1.75A5.21,5.21,0,0,1,52,26.8Z"/><path class="cls-1" d="M69.53,26.8a5.26,5.26,0,0,1,5.31-5.41,5.16,5.16,0,0,1,4.06,1.66l-1.28,1.16a3.63,3.63,0,0,0-2.78-1.16c-2,0-3.31,1.62-3.31,3.75s1.32,3.71,3.31,3.71a3.84,3.84,0,0,0,3-1.28l1.28,1.13a5.3,5.3,0,0,1-4.31,1.81A5.26,5.26,0,0,1,71,30.61a5.27,5.27,0,0,1-1.51-3.81Z"/><path class="cls-1" d="M88.27,25.61c0-1.9-.94-2.59-2.4-2.59a3.37,3.37,0,0,0-1.65.35A3.31,3.31,0,0,0,83,24.49l-1.22-1.07a5.08,5.08,0,0,1,1.84-1.54,5,5,0,0,1,2.35-.49c2.62,0,4.25,1.39,4.25,4.22v6.31H88.27V30.76a3.83,3.83,0,0,1-1.44,1.08,3.89,3.89,0,0,1-1.78.33c-2.15,0-3.9-1.06-3.9-3.31,0-2.08,1.84-3.16,4-3.16h3.09Zm-3,1.63c-1.24,0-2.24.46-2.24,1.62s.87,1.73,2.31,1.73,2.9-.81,2.9-2.24V27.22Z"/><path class="cls-1" d="M93.61,21.64h1.91v1.74a3.3,3.3,0,0,1,3-2,2.81,2.81,0,0,1,1.62.41l-.65,1.62a2.62,2.62,0,0,0-1.29-.28c-1.53,0-2.68,1.25-2.68,3.34v5.44H93.61Z"/><path class="cls-1" d="M102.45,21.64h1.91v1.74a4,4,0,0,1,3.71-2,5.12,5.12,0,0,1,5.06,5.4,5.1,5.1,0,0,1-5.06,5.38,4,4,0,0,1-3.71-2v8.37h-1.91Zm8.72,5.16a3.43,3.43,0,0,0-3.47-3.72c-2.09,0-3.41,1.53-3.41,3.72a3.38,3.38,0,0,0,3.41,3.68A3.45,3.45,0,0,0,111.17,26.8Z"/><path class="cls-1" d="M120.91,30.55a4,4,0,0,0,3.22-1.35l1.19,1.16a5.39,5.39,0,0,1-4.38,1.81,5.43,5.43,0,0,1-5.23-7.45A5.22,5.22,0,0,1,116.88,23a5.37,5.37,0,0,1,3.83-1.57c3.28,0,5.28,2.57,5.21,6.09H117.3A3.4,3.4,0,0,0,120.91,30.55Zm3-4.66A3.09,3.09,0,0,0,120.72,23a3.26,3.26,0,0,0-3.34,2.87Z"/><path class="cls-1" d="M127.85,23.27V21.64h1.34v-6.4h1.91v6.4h2.56v1.63H131.1v5.87c0,.94.35,1.39,1.09,1.39a1.87,1.87,0,0,0,1.13-.44l.81,1.34a3.06,3.06,0,0,1-2.16.75c-1.68,0-2.77-.9-2.77-2.93v-6Z"/><path class="cls-1" d="M155.42,25.74a15.41,15.41,0,0,0,.87-5.38h1.9a15.73,15.73,0,0,1-1.44,7l3.72,4.59H158l-2.31-2.84a8.12,8.12,0,0,1-6.52,3.09c-4,0-6.91-2.34-6.91-5.9s2.53-5.21,5.5-6.94l-.38-.47a6.44,6.44,0,0,1-1.68-4.16,4.21,4.21,0,0,1,4.46-4.28,4,4,0,0,1,4.25,4.21c0,2.06-1.56,3.63-3.84,5Zm-6.6-5.06c-2.65,1.49-4.51,2.84-4.51,5.59,0,2.53,2,4.12,4.81,4.12a6.21,6.21,0,0,0,5.34-2.78Zm3.63-6a2.29,2.29,0,0,0-2.32-2.47,2.38,2.38,0,0,0-2.49,2.53,4.75,4.75,0,0,0,1.25,3l.56.69c1.76-1.07,3-2.1,3-3.72Z"/><path class="cls-1" d="M168.92,9.75h1.91V23.28a3.88,3.88,0,0,1,3.53-1.9c2.24,0,3.93,1.43,3.93,4.21V31.9h-1.9V25.81c0-1.81-.88-2.69-2.5-2.69a2.88,2.88,0,0,0-3.06,3.13v5.68h-1.91Z"/><path class="cls-1" d="M181,26.8a5.42,5.42,0,0,1,.88-3.05,5.35,5.35,0,0,1,2.42-2,5.45,5.45,0,0,1,7.2,7.07,5.45,5.45,0,0,1-5,3.39,5.37,5.37,0,0,1-2.09-.37,5.53,5.53,0,0,1-1.78-1.16,5.24,5.24,0,0,1-1.18-1.76A5.15,5.15,0,0,1,181,26.8Zm8.93,0a3.48,3.48,0,1,0-6.94,0,3.48,3.48,0,1,0,6.94,0Z"/><path class="cls-1" d="M194.72,21.64h1.91v1.41a3.27,3.27,0,0,1,3.06-1.66,3.34,3.34,0,0,1,1.84.48,3.27,3.27,0,0,1,1.25,1.43,4,4,0,0,1,3.62-1.91,3.61,3.61,0,0,1,3.72,4v6.56h-1.91V25.58c0-1.62-.75-2.47-2.18-2.47-1.72,0-2.66,1-2.66,2.84v6h-1.9V25.61c0-1.62-.72-2.5-2.19-2.5-1.69,0-2.65,1-2.65,2.91v5.9h-1.91Z"/><path class="cls-1" d="M218.4,30.55a3.93,3.93,0,0,0,3.21-1.35l1.19,1.16a5.37,5.37,0,0,1-4.37,1.81,5.43,5.43,0,0,1-5.23-7.45A5.21,5.21,0,0,1,214.37,23a5.37,5.37,0,0,1,1.76-1.17,5.49,5.49,0,0,1,2.08-.39c3.28,0,5.28,2.57,5.21,6.09h-8.63A3.41,3.41,0,0,0,218.4,30.55Zm3-4.66A3.09,3.09,0,0,0,218.21,23a3.26,3.26,0,0,0-3.34,2.87Z"/></svg>