<?xml version="1.0" encoding="utf-8"?>
<!-- Generator: Adobe Illustrator 26.0.3, SVG Export Plug-In . SVG Version: 6.00 Build 0)  -->
<svg version="1.1" id="Layer_1" xmlns="http://www.w3.org/2000/svg" xmlns:xlink="http://www.w3.org/1999/xlink" x="0px" y="0px"
	 viewBox="0 0 581.21 43.65" style="enable-background:new 0 0 581.21 43.65;" xml:space="preserve">
<style type="text/css">
	.st0{stroke:#231F20;stroke-width:0.7826;}
</style>
<g>
	<path class="st0" d="M25,7.14V36.5h-3.25V22.51H7.68V36.5H4.43V7.14h3.25v12.61h14.07V7.14H25z"/>
	<path class="st0" d="M30.37,36.5L39.4,7.14h4.84l9.03,29.36h-3.42l-2.77-9.19H36.55l-2.77,9.19H30.37z M37.37,24.55h8.91
		L42.04,9.42H41.6L37.37,24.55z"/>
	<path class="st0" d="M78.11,22.39V36.5h-2.68v-2.68h-0.08c-1.5,2.07-4.43,3.09-7.69,3.09c-6.67,0-11.47-4.8-11.47-15.09
		c0-10.29,4.8-15.09,11.47-15.09c4.96,0,8.78,2.36,10.57,8.62l-3.09,0.61c-1.46-4.68-3.9-6.47-7.32-6.47
		c-4.31,0-8.38,2.93-8.38,12.32c0,9.39,4.07,12.32,8.38,12.32c4.8,0,7.04-2.93,7.04-6.51v-2.48h-6.63v-2.77H78.11z"/>
	<path class="st0" d="M103.37,7.14v2.77H89.01v9.84h10.21v2.77H89.01v11.22h15.17v2.77H85.76V7.14H103.37z"/>
	<path class="st0" d="M110.61,36.5V7.14h4.68l12.81,22.61h0.16V7.14h2.93V36.5h-2.68l-14.88-26.19h-0.08V36.5H110.61z"/>
	<path class="st0" d="M139.97,7.14h10.82c5.12,0,8.21,3.25,8.21,7.24c0,3.21-1.42,5.53-4.96,6.75l0.04,0.08
		c3.29,0.81,5.65,3.74,5.65,7.4c0,4.39-2.68,7.89-10.65,7.89h-9.11V7.14z M143.22,19.75h5.69c4.92,0,6.83-2.52,6.83-5
		c0-3.29-1.79-4.84-5.53-4.84h-6.99V19.75z M143.22,33.74h6.1c4.8,0,7.16-1.63,7.16-5.29c0-3.74-3.01-5.94-7.65-5.94h-5.61V33.74z"
		/>
	<path class="st0" d="M167.1,36.5V7.14h3.25v26.59h13.91v2.77H167.1z"/>
	<path class="st0" d="M186.29,36.5l9.03-29.36h4.84l9.03,29.36h-3.42l-2.77-9.19h-10.53l-2.77,9.19H186.29z M193.29,24.55h8.91
		l-4.23-15.13h-0.45L193.29,24.55z"/>
	<path class="st0" d="M233.43,27.72c-1.3,5.45-4.31,9.19-10.33,9.19c-6.59,0-11.22-4.8-11.22-15.09c0-9.56,4.15-15.09,11.22-15.09
		c5.45,0,8.62,3.17,9.92,8.54l-3.01,0.89c-1.06-4.15-2.93-6.67-7.32-6.67c-4.23,0-7.56,3.9-7.56,12.32c0,8.5,3.33,12.32,8.21,12.32
		c4.51,0,6.26-3.42,7.16-7L233.43,27.72z"/>
	<path class="st0" d="M242.98,36.5h-3.25V7.14h3.25v15.25h0.08l12.16-15.25h3.86l-9.11,11.06l10.21,18.3h-3.7l-8.74-15.62
		l-4.76,5.77V36.5z"/>
	<path d="M266.45,7.14h2.68V36.5h-2.68V7.14z"/>
	<path d="M277.51,7.14h4.51l13.95,24.48h0.08V7.14h2.68V36.5h-2.77l-15.7-27.16h-0.08V36.5h-2.68V7.14z"/>
	<path d="M304.07,7.14h20.09v2.2h-8.7V36.5h-2.68V9.34h-8.7V7.14z"/>
	<path d="M329.49,36.5V7.14h16.75v2.2h-14.07v10.82h10.13v2.2h-10.13v11.96h14.84v2.2H329.49z"/>
	<path d="M372.14,36.5h-2.93l-6.83-13.42h-7.6V36.5h-2.68V7.14h9.92c5.77,0,9.03,3.17,9.03,7.97c0,3.86-1.91,6.42-6.1,7.48
		L372.14,36.5z M354.78,20.89h7.24c3.9,0,6.34-2.16,6.34-5.77s-2.12-5.77-6.34-5.77h-7.24V20.89z"/>
	<path d="M379.47,7.14h2.68V36.5h-2.68V7.14z"/>
	<path d="M411.59,21.82c0,8.66-4.23,15.09-11.59,15.09s-11.59-6.42-11.59-15.09c0-8.66,4.23-15.09,11.59-15.09
		S411.59,13.16,411.59,21.82z M408.91,21.82c0-8.25-3.5-12.89-8.91-12.89s-8.91,4.64-8.91,12.89c0,8.26,3.5,12.89,8.91,12.89
		S408.91,30.08,408.91,21.82z"/>
	<path d="M437.7,36.5h-2.93l-6.83-13.42h-7.6V36.5h-2.68V7.14h9.92c5.77,0,9.03,3.17,9.03,7.97c0,3.86-1.91,6.42-6.1,7.48
		L437.7,36.5z M420.34,20.89h7.24c3.9,0,6.34-2.16,6.34-5.77s-2.12-5.77-6.34-5.77h-7.24V20.89z"/>
	<path d="M444.78,7.14h8.29c9.11,0,12.77,6.83,12.77,14.68c0,7.85-3.66,14.68-12.77,14.68h-8.29V7.14z M447.46,34.31h5.69
		c6.51,0,10-4.55,10-12.48c0-7.93-3.5-12.48-10-12.48h-5.69V34.31z"/>
	<path d="M471.9,36.5V7.14h16.75v2.2h-14.07v10.82h10.12v2.2h-10.12v11.96h14.84v2.2H471.9z"/>
	<path d="M494.23,28.29c1.14,4.47,3.74,6.43,8.38,6.43c3.66,0,5.86-2.32,5.86-5.86c0-7.89-15.9-4.8-15.9-14.52
		c0-4.35,3.01-7.6,8.46-7.6c4.64,0,8.05,2.52,9.39,7.04l-2.32,0.69c-1.06-3.25-3.33-5.53-7.08-5.53c-3.42,0-5.77,1.95-5.77,5.41
		c0,1.99,0.57,3.42,5.98,5.45c8.25,3.09,9.92,5.12,9.92,9.35c0,5-4.19,7.77-8.95,7.77c-5.61,0-8.82-2.48-10.45-7.85L494.23,28.29z"
		/>
	<path d="M517.37,7.14h2.68V36.5h-2.68V7.14z"/>
	<path d="M545.11,15.68c-0.89-3.74-3.21-6.75-7.56-6.75c-5.17,0-8.54,4.96-8.54,12.89c0,6.3,1.83,12.89,9.39,12.89
		c4.15,0,6.87-3.17,6.87-7.08v-2.68h-7.4v-2.2h10.08V36.5h-2.32v-2.89h-0.08c-1.75,2.28-3.9,3.29-7.97,3.29
		c-6.55,0-11.26-5.37-11.26-15.09c0-9.72,5.08-15.09,11.39-15.09c5.45,0,8.91,3.5,9.92,8.5L545.11,15.68z"/>
	<path d="M555.56,7.14h4.51l13.95,24.48h0.08V7.14h2.68V36.5h-2.76l-15.7-27.16h-0.08V36.5h-2.68V7.14z"/>
</g>
</svg>
